<?xml version="1.0" encoding="UTF-8" standalone="no"?>
<!-- Created with Inkscape (http://www.inkscape.org/) -->

<svg
   xmlns:dc="http://purl.org/dc/elements/1.1/"
   xmlns:cc="http://creativecommons.org/ns#"
   xmlns:rdf="http://www.w3.org/1999/02/22-rdf-syntax-ns#"
   xmlns:svg="http://www.w3.org/2000/svg"
   xmlns="http://www.w3.org/2000/svg"
   xmlns:sodipodi="http://sodipodi.sourceforge.net/DTD/sodipodi-0.dtd"
   xmlns:inkscape="http://www.inkscape.org/namespaces/inkscape"
   id="svg3336"
   version="1.1"
   inkscape:version="0.91 r13725"
   width="309.87296"
   height="354.20731"
   viewBox="0 0 309.87296 354.20731"
   sodipodi:docname="winchester2.svg"
   inkscape:export-filename="C:\Desarrollo\web\PuertoHurracoInfinito\images\winchester2.png"
   inkscape:export-xdpi="90"
   inkscape:export-ydpi="90">
  <metadata
     id="metadata3342">
    <rdf:RDF>
      <cc:Work
         rdf:about="">
        <dc:format>image/svg+xml</dc:format>
        <dc:type
           rdf:resource="http://purl.org/dc/dcmitype/StillImage" />
        <dc:title></dc:title>
      </cc:Work>
    </rdf:RDF>
  </metadata>
  <defs
     id="defs3340" />
  <sodipodi:namedview
     pagecolor="#ffffff"
     bordercolor="#666666"
     borderopacity="1"
     objecttolerance="10"
     gridtolerance="10"
     guidetolerance="10"
     inkscape:pageopacity="0"
     inkscape:pageshadow="2"
     inkscape:window-width="1366"
     inkscape:window-height="706"
     id="namedview3338"
     showgrid="false"
     inkscape:zoom="1.3252747"
     inkscape:cx="149.72477"
     inkscape:cy="172.53527"
     inkscape:window-x="-8"
     inkscape:window-y="-8"
     inkscape:window-maximized="1"
     inkscape:current-layer="svg3336"
     inkscape:snap-page="true"
     showborder="true"
     fit-margin-top="0"
     fit-margin-left="0"
     fit-margin-right="0"
     fit-margin-bottom="0" />
  <g
     id="g3480"
     transform="translate(-52.577599,77.461145)">
    <path
       inkscape:connector-curvature="0"
       id="path3346"
       d="m 100.76353,276.74615 c -1.708422,0 -32.583399,-31.54557 -33.348629,-34.07296 -0.545822,-1.80272 0.660128,-4.13983 4.66314,-9.03705 2.969645,-3.63302 11.207148,-14.32112 18.305559,-23.75133 7.098411,-9.43021 17.20349,-22.4119 22.45573,-28.84821 8.60339,-10.54294 10.16504,-12.01095 15.76205,-14.81693 7.47245,-3.74621 8.94353,-5.96444 12.06455,-18.19204 2.7728,-10.86335 5.39437,-16.62789 12.42185,-27.31427 4.27381,-6.499 17.38007,-20.22749 76.171,-79.787299 39.05495,-39.5657111 81.04388,-82.359807 93.30874,-95.098008 21.38024,-22.205355 22.40785,-23.127629 24.92109,-22.366679 1.44173,0.436525 3.64186,1.814195 4.88915,3.061495 1.42659,1.42658 2.75963,1.776009 3.59365,0.94199 0.92101,-0.921013 2.25219,-0.399455 4.35985,1.708204 4.60521,4.605214 1.50857,8.78309 -7.38048,9.957472 -4.58853,0.606212 -15.84189,12.087169 -15.09639,15.401715 0.71064,3.159548 3.91844,5.887988 6.62653,5.636298 3.64144,-0.338439 7.02484,3.581764 4.91352,5.693079 -0.94357,0.943578 -2.35917,1.563675 -3.14575,1.377989 -0.78659,-0.185687 -2.3215,0.553735 -3.41092,1.643153 -3.06831,3.068306 -5.81727,2.386913 -10.90799,-2.703813 l -4.68459,-4.684583 -12.19688,12.196885 -12.19689,12.196885 3.19492,2.550329 c 4.86082,3.8801183 4.63965,7.0372228 -0.95665,13.6561263 -47.14233,55.7566147 -77.76037,88.4138777 -81.38117,86.8012967 -1.51288,-0.673774 -4.06006,1.408415 -14.52545,11.873805 -13.63931,13.63931 -17.61572,19.65684 -18.91476,28.62384 -0.77756,5.3673 -5.96681,12.83834 -10.89483,15.68543 -2.27663,1.31528 -4.72245,1.42118 -7.57924,0.32817 -4.12873,-1.57967 -4.29597,-1.51184 -7.91088,3.20883 -7.15602,9.34495 -8.81534,17.11046 -5.89611,27.59341 l 2.12049,7.61472 -5.51437,4.37106 c -16.15316,12.80407 -17.24357,13.93587 -19.69429,20.44163 -1.30033,3.45189 -5.19411,12.19673 -8.65285,19.43298 -4.45313,9.31667 -5.83994,13.46007 -4.75139,14.19581 2.27857,1.54007 0.25778,6.56295 -3.82398,9.50492 -2.24249,1.6163 -4.80289,5.07157 -6.85649,9.2529 -4.16036,8.47087 -8.79615,15.72275 -10.05084,15.72275 z m 3.90084,-10.23571 c 1.79982,-3.10638 3.67809,-6.98789 4.17394,-8.62556 0.49584,-1.63767 2.24496,-4.42596 3.88692,-6.19619 1.64196,-1.77024 2.65208,-3.55192 2.24471,-3.95929 -0.40736,-0.40736 0.0123,-1.4936 0.93254,-2.41387 0.92026,-0.92026 1.30552,-2.49876 0.85614,-3.50779 -0.44938,-1.00902 -0.16355,-2.4881 0.63517,-3.28682 1.46175,-1.46175 8.84069,-17.29741 14.56427,-31.25582 3.55805,-8.67719 6.80822,-12.32161 15.41685,-17.28685 5.72789,-3.30371 11.53489,-8.04012 8.03248,-6.55159 -0.85287,0.36246 -2.16285,0.0469 -2.91107,-0.70136 -1.03836,-1.03836 -0.84616,-1.40819 0.81191,-1.56229 1.67871,-0.15602 1.9242,-0.86529 1.08041,-3.12157 -3.42715,-9.16412 -1.35936,-20.57001 5.24916,-28.9542 2.11349,-2.68137 3.45782,-5.26012 2.98738,-5.73055 -0.47043,-0.47044 0.12358,-1.26854 1.32003,-1.77357 5.78274,-2.44093 8.40713,-4.30816 7.20359,-5.1253 -2.08826,-1.41781 6.9767,-10.68739 10.45147,-10.68739 2.0008,0 3.56164,-0.98006 5.00222,-3.14094 1.15168,-1.72752 3.11817,-4.16515 4.36997,-5.41695 1.72438,-1.72437 1.77985,-2.27599 0.22891,-2.276 -2.1436,0 -6.5663,3.71804 -22.32145,18.76498 l -9.49416,9.06739 7.46955,-8.05964 c 4.13665,-4.46343 6.89521,-8.19523 6.18237,-8.36351 -0.70796,-0.16713 -0.42254,-1.04739 0.63428,-1.95614 1.0568,-0.90874 2.13421,-1.43767 2.39422,-1.17539 0.26045,0.26186 3.72587,-3.03355 7.70192,-7.3241 6.63782,-7.16288 7.36685,-7.66329 8.91255,-6.11758 1.5153,1.5153 2.47107,0.92646 9.57123,-5.89674 5.80922,-5.582609 7.2893,-7.479896 5.61655,-7.199754 -1.73687,0.290884 -1.41575,-0.323855 1.36478,-2.6127 1.99982,-1.646191 3.33715,-3.291978 2.97182,-3.657303 -0.36532,-0.365322 -3.29136,1.680488 -6.5023,4.546237 -4.40769,3.933839 -3.76834,3.057263 2.60947,-3.57771 7.3778,-7.675284 8.25955,-8.991919 6.96289,-10.397093 -1.26958,-1.375782 -1.11847,-1.462848 1.04273,-0.600786 2.48805,0.992435 2.49975,0.978558 0.752,-0.891513 -1.72145,-1.842084 -1.35978,-2.311047 11.92101,-15.456549 7.53303,-7.456292 14.29299,-13.556841 15.02213,-13.556781 0.72913,7.4e-5 -3.73666,5.212904 -9.92399,11.584074 -6.18735,6.371185 -8.81915,9.440433 -5.84846,6.820554 2.97069,-2.61987 5.77916,-4.385508 6.24103,-3.923633 0.80897,0.808968 -8.80451,11.359194 -17.90994,19.655111 -3.48726,3.17722 -4.10346,4.293432 -2.98668,5.410205 1.05415,1.054158 2.3008,0.513342 4.97034,-2.156199 2.34983,-2.349828 4.18719,-3.285408 5.39538,-2.747326 1.57972,0.703543 4.5835,-2.060259 21.80515,-20.063054 10.98517,-11.483443 23.97337,-25.65646 28.86266,-31.49559 4.8893,-5.839129 11.46914,-13.207817 14.62187,-16.374854 3.21863,-3.233295 6.2382,-7.3678359 6.88609,-9.4289369 0.79469,-2.5280538 2.82966,-5.0329343 6.53726,-8.04681859 l 5.3834,-4.37612971 -4.44333,-4.4433325 -4.44333,-4.4433313 6.00014,-6.816172 c 3.30007,-3.748891 9.42028,-10.15774 13.60045,-14.241878 l 7.60031,-7.425708 6.26436,4.784185 c 4.91919,3.756877 6.58942,4.459121 7.77817,3.270369 0.8326,-0.832597 2.57718,-1.582813 3.87686,-1.667146 1.29965,-0.08432 0.797,-0.297311 -1.11703,-0.473291 -2.67538,-0.245988 -4.12503,-1.248844 -6.26945,-4.337153 -1.53417,-2.209444 -2.88575,-4.841718 -3.00351,-5.849497 -0.13224,-1.131683 2.77388,-4.848832 7.60022,-9.721255 6.45198,-6.513585 8.4968,-7.970477 11.72877,-8.356516 2.15293,-0.257155 4.54774,-1.100871 5.3218,-1.874934 2.02805,-2.028053 -0.62404,-4.095249 -3.26814,-2.54737 -1.71262,1.002582 -2.9734,0.562136 -5.4338,-1.898262 l -3.20374,-3.203747 -53.33847,53.691326 c -29.33614,29.5302242 -53.22087,54.189408 -53.07715,54.798167 0.14371,0.608772 -9.116,10.007267 -20.57712,20.885541 -13.6283,12.93524 -20.53307,20.084007 -19.95594,20.661137 0.5605,0.560498 -0.90147,2.162126 -4.00705,4.389841 -8.52051,6.111989 -31.28702,29.510466 -37.98877,39.043286 -7.3238,10.41765 -11.03072,18.463 -13.99427,30.37254 -2.31578,9.3064 -4.44037,11.99057 -18.41387,23.26376 -4.02524,3.24738 -10.21415,10.03654 -16.86007,18.49528 -17.041597,21.69005 -37.799117,48.95708 -37.794078,49.64621 0.01095,1.4972 29.274304,32.35606 29.988018,31.62303 0.42562,-0.43834 2.24751,-3.3375 4.04732,-6.4439 z m 2.14846,-10.55685 c -0.005,-1.20363 0.43714,-2.18841 0.98141,-2.18841 0.54427,0 0.54796,0.98479 0.008,2.18842 -0.78005,1.73937 -0.9831,1.73937 -0.98959,-1e-5 z m 4.82435,-11.55694 c -0.99526,-0.99526 1.25062,-5.65749 2.72532,-5.65749 0.5749,0 0.38237,0.66291 -0.42785,1.47314 -0.81023,0.81022 -1.07539,1.87088 -0.58926,2.35702 0.48614,0.48613 0.48614,1.28163 0,1.76777 -0.48613,0.48613 -1.25482,0.51294 -1.70821,0.0596 z m 3.18135,-7.90403 c 0,-0.58741 0.73095,-1.38116 1.62432,-1.7639 0.98726,-0.42294 0.98726,-0.004 0,1.06802 -0.89337,0.97016 -1.62433,1.28328 -1.62433,0.69587 z m 2.65165,-4.28237 c 0,-0.51203 2.54222,-7.44946 5.64938,-15.4165 5.70801,-14.63585 11.06648,-24.07858 11.82956,-20.84612 0.21396,0.90638 -0.39884,2.43583 -1.36179,3.39877 -0.96294,0.96295 -2.4749,3.97815 -3.3599,6.70043 -0.88499,2.72229 -3.04235,7.59073 -4.79413,10.81875 -1.75177,3.22802 -3.77632,7.72681 -4.49899,9.9973 -1.24752,3.91946 -3.46413,7.34112 -3.46413,5.34737 z m 6.49396,-26.75189 c -0.77304,-0.77304 0.11816,-5.44575 1.25557,-6.58317 1.3443,-1.3443 1.84597,1.35324 0.78117,4.20049 -0.68726,1.83771 -1.56034,2.85908 -2.03674,2.38268 z m 23.6998,-44.99701 c 0.41695,-4.57258 -0.3603,-4.09747 -2.06653,1.2632 -0.94171,2.95868 -1.42117,3.53094 -1.95467,2.333 -0.75185,-1.68817 1.12621,-8.47855 3.54128,-12.80396 1.38667,-2.48354 5.349,-3.84693 6.84177,-2.35416 0.68076,0.68076 -1.1839,5.29402 -4.83407,11.95971 l -1.87653,3.42678 0.34875,-3.82457 z m 50.60058,-55.23595 c 0.35631,-0.84053 1.53481,-2.04851 2.61891,-2.6844 1.0841,-0.63589 0.79257,0.0518 -0.64782,1.52825 -1.44039,1.47642 -2.32737,1.99668 -1.97108,1.15616 z m 92.819,-92.830172 c 0.36247,-0.852866 1.35684,-1.847235 2.20971,-2.209709 0.85287,-0.3624657 0.55631,0.335333 -0.65903,1.550673 -1.21534,1.215339 -1.91315,1.51191 -1.55068,0.659036 z m -54.42285,50.361123 c -0.19313,-0.818106 0.68604,-2.524663 1.95371,-3.792329 2.77061,-2.770607 2.87344,-2.026698 0.30046,2.173361 -1.24819,2.03752 -2.02386,2.594611 -2.25417,1.618968 z m -76.39192,75.150309 c 0.36247,-0.85287 1.35683,-1.84723 2.20971,-2.20971 0.85286,-0.36246 0.5563,0.33533 -0.65904,1.55067 -1.21534,1.21534 -1.91314,1.51191 -1.55067,0.65904 z m 4.40818,-4.39701 c 0.3563,-0.84053 1.53481,-2.04851 2.61891,-2.6844 1.0841,-0.63589 0.79257,0.0518 -0.64783,1.52825 -1.44039,1.47642 -2.32737,1.99668 -1.97107,1.15616 z m 36.21085,-38.115727 c 1.89222,-2.265646 5.07682,-5.445 7.07694,-7.065199 2.00009,-1.620231 0.45192,0.233475 -3.44038,4.119352 -3.89227,3.885905 -5.52874,5.211524 -3.63652,2.945879 z M 295.50294,0.9047426 c 0.36247,-0.85286623 1.35684,-1.84723515 2.20971,-2.2097087 0.85287,-0.3624658 0.5563,0.33533268 -0.65904,1.55067246 -1.21533,1.21533974 -1.91314,1.51191024 -1.55067,0.65903624 z M 248.15116,45.962565 c -0.19314,-0.818106 0.68604,-2.524663 1.9537,-3.792329 2.77061,-2.770607 2.87344,-2.026698 0.30046,2.173361 -1.24819,2.03752 -2.02385,2.594611 -2.25416,1.618968 z m 45.15291,-47.3450859 c -1e-5,-1.6499106 0.47141,-2.1213245 2.12132,-2.1213203 1.64991,4.2e-6 1.64992,0.4713998 0,2.1213203 -1.64992,1.64992058 -2.12132,1.64991068 -2.12132,0 z M 218.13117,63.98964 c 3.62369,-3.955853 9.59091,-9.921053 13.26045,-13.25606 3.66959,-3.334942 0.70475,-0.09833 -6.58853,7.192473 -7.29331,7.290766 -10.29566,10.019386 -6.67197,6.063527 z M 244.7494,35.851071 c 0,-0.58741 0.73095,-1.381165 1.62433,-1.763899 0.98726,-0.42294 0.98726,-0.0041 -1e-5,1.068034 -0.89338,0.970129 -1.62432,1.283272 -1.62432,0.69586 z m -57.55443,53.87233 c 0.62384,-1.066307 2.20681,-2.665325 3.5177,-3.553367 1.31089,-0.888055 0.80048,-0.01563 -1.13425,1.938722 -1.93474,1.954351 -3.00729,2.680948 -2.38345,1.614649 z m -10.54368,53.517249 c -0.18355,-0.18354 -1.57567,-0.18354 -3.0936,0 -2.50133,0.30246 -2.50133,0.36499 0,0.66744 2.627,0.31765 3.82106,0.06 3.0936,-0.66744 z m 7.23792,-11.17904 c 1.49534,-3.35757 -0.59732,-3.63296 -3.73832,-0.49196 -3.50953,3.50952 -5.07869,6.55639 -3.95521,7.67987 0.89154,0.89153 6.37822,-4.23457 7.69353,-7.18791 z m -9.03638,0.0998 c -0.85288,0.36247 -1.84725,1.35684 -2.20971,2.20971 -0.36247,0.85287 0.33533,0.5563 1.55067,-0.65904 1.21534,-1.21534 1.5119,-1.91314 0.65904,-1.55067 z"
       style="fill:#000000" />
    <path
       id="path3348"
       d="m 68.455078,-77.460938 c -0.310382,0.0042 -0.601861,0.07285 -0.916016,0.167969 -1.44173,0.436525 -3.641381,1.813247 -4.888671,3.060547 -1.42659,1.42658 -2.75973,1.777378 -3.59375,0.94336 -0.92101,-0.921014 -2.251715,-0.400628 -4.359375,1.707031 -4.60521,4.605214 -1.510144,8.782649 7.378906,9.957031 4.58853,0.606212 15.843156,12.087798 15.097656,15.402344 -0.71064,3.159548 -3.918863,5.88841 -6.626953,5.636718 -3.64144,-0.338439 -7.025382,3.582045 -4.914063,5.69336 0.94357,0.943578 2.359905,1.562639 3.146485,1.376953 0.78659,-0.185687 2.320736,0.555113 3.410156,1.644531 3.06831,3.068306 5.817483,2.385648 10.908203,-2.705078 l 4.685547,-4.683594 12.195313,12.197266 12.197264,12.195312 -3.19531,2.550782 c -4.86082,3.8801133 -4.63927,7.0373456 0.95703,13.6562498 38.93267,46.0467982 66.51905,76.2401552 77.00977,84.4824222 0.0285,-0.04311 0.0563,-0.08672 0.0859,-0.128907 -0.007,0.003 10e-4,-0.0054 0.0137,-0.01953 0.002,-0.0024 0.002,-0.0055 0.004,-0.0078 0.0101,-0.0078 0.002,-0.0025 0.0117,-0.0098 0.036,-0.03857 0.091,-0.09347 0.29297,-0.275391 0.0201,-0.01816 0.0429,-0.03233 0.0644,-0.04883 0.0359,-0.05979 0.0684,-0.12266 0.11328,-0.175781 0.17765,-0.210233 0.50023,-0.543585 0.7793,-0.683594 0.0476,-0.04044 0.10244,-0.04227 0.69922,-0.523437 0.0751,-0.06054 -0.16684,0.09883 -0.25781,0.130859 -0.0188,0.0066 0.0166,-0.0373 0.0312,-0.05078 0.0811,-0.0743 0.15853,-0.152939 0.24218,-0.224609 -2.47141,-1.629955 -7.52737,-6.724668 -19.75586,-19.507813 -10.98517,-11.483443 -23.97203,-25.656964 -28.86132,-31.496094 -4.8893,-5.839129 -11.47032,-13.207963 -14.62305,-16.375 -3.21863,-3.233295 -6.23883,-7.3666331 -6.88672,-9.4277341 -0.79469,-2.5280538 -2.82951,-5.032991 -6.53711,-8.046875 l -5.38281,-4.3769531 4.44336,-4.4433594 4.44336,-4.4433594 -6,-6.816406 c -3.30007,-3.748891 -9.41945,-10.156097 -13.599612,-14.240235 l -7.601562,-7.425781 -6.263672,4.783203 c -4.91919,3.756877 -6.590547,4.460237 -7.779297,3.271485 -0.8326,-0.832597 -2.577273,-1.583636 -3.876953,-1.667969 -1.29965,-0.08432 -0.796843,-0.296676 1.117187,-0.472656 2.67538,-0.245988 4.125113,-1.249582 6.269531,-4.337891 1.534172,-2.209444 2.886147,-4.84183 3.003907,-5.849609 0.13224,-1.131683 -2.77327,-4.848281 -7.59961,-9.720703 -6.45198,-6.513585 -8.496545,-7.971383 -11.728515,-8.357422 -2.15293,-0.257155 -4.548206,-1.100937 -5.322266,-1.875 -2.02805,-2.028053 0.623478,-4.094754 3.267578,-2.546875 1.71262,1.002582 2.973194,0.56196 5.433594,-1.898438 l 3.205078,-3.203125 53.337892,53.691406 c 29.33614,29.530235 53.21989,54.188116 53.07617,54.796875 -0.14371,0.608772 9.11701,10.008445 20.57813,20.886719 4.99322,4.739303 9.06045,8.679373 12.21093,11.826172 0.097,-0.14707 0.18972,-0.297087 0.3125,-0.423828 0.11131,-0.114906 0.24339,-0.208477 0.36328,-0.314453 -0.003,0.0014 -0.007,0.0027 -0.01,0.0039 -0.0323,0.02857 -0.0768,0.07112 -0.12305,0.09375 -0.0278,0.01362 0.0366,-0.04914 0.0547,-0.07422 0.0333,0.0013 0.0479,-0.01129 0.0684,-0.01953 0.004,-0.0031 0.007,-0.0041 0.0137,-0.0098 0.0947,-0.05534 0.0546,-0.208569 0.12695,-0.273437 0.056,-0.05017 0.11576,-0.09661 0.17383,-0.144531 0.044,-0.07568 0.10213,-0.139833 0.17578,-0.19336 -0.0764,-0.07241 0.0512,-0.25006 0.4961,-0.605469 0.0504,-0.04027 0.0595,-0.03868 0.0527,-0.02148 0.0982,-0.08468 0.20069,-0.171734 0.26367,-0.228516 C 202.5231,57.160573 194.85931,49.380539 185.76953,40.171875 146.71457,0.60616423 104.72579,-42.18758 92.460938,-54.925781 73.753225,-74.355467 70.627752,-77.490595 68.455078,-77.460938 Z M 208.27539,65.787109 c -0.002,0.0013 -0.002,0.0047 -0.004,0.0059 0.0135,-0.01192 0.0279,-0.02285 0.041,-0.03516 0.0115,-0.01077 -0.0174,0.01335 -0.0371,0.0293 z M 119.60156,-4.2578125 c -1.64991,4e-6 -1.64992,0.4711741 0,2.1210937 1.64992,1.64992233 2.1211,1.64991233 2.1211,0 10e-6,-1.6499093 -0.47119,-2.1210977 -2.1211,-2.1210937 z m -2.69922,2.1113281 c -0.25009,0.07994 0.14178,0.706224 1.07227,1.63671878 1.21533,1.21533897 1.91325,1.51303022 1.55078,0.66015624 -0.36247,-0.852866 -1.35807,-1.84650792 -2.21094,-2.20898442 -0.10661,-0.045308 -0.19448,-0.074656 -0.26562,-0.087891 -0.0622,-0.011581 -0.11076,-0.01142 -0.14649,0 z M 121.32227,9.34375 c -0.25048,0.080313 0.13982,0.708177 1.07031,1.638672 1.21534,1.215339 1.91325,1.511077 1.55078,0.658203 -0.36247,-0.852866 -1.35613,-1.8465104 -2.20898,-2.2089844 -0.10663,-0.045308 -0.19449,-0.074656 -0.26563,-0.087891 -0.0623,-0.011581 -0.1107,-0.011473 -0.14648,0 z m 46.77539,23.826172 c -0.37023,-0.01037 -0.18382,0.426368 0.55664,1.230469 0.89338,0.970129 1.62304,1.282724 1.62304,0.695312 0,-0.58741 -0.72966,-1.380938 -1.62304,-1.763672 -0.24682,-0.105735 -0.43324,-0.158652 -0.55664,-0.162109 z m -5.16602,6.609375 c -0.4804,-0.08933 0.0833,1.18551 1.69141,3.810547 1.24819,2.03752 2.02359,2.59283 2.2539,1.617187 0.19314,-0.818106 -0.68741,-2.523349 -1.95507,-3.791015 -1.03898,-1.038978 -1.702,-1.583121 -1.99024,-1.636719 z m 19.16016,8.890625 c -0.37238,-0.154875 2.66285,3.033851 8.13281,8.501953 7.29331,7.290766 10.29556,10.018359 6.67187,6.0625 -3.62369,-3.955853 -9.59022,-9.920852 -13.25976,-13.255859 -0.9174,-0.833736 -1.4208,-1.256969 -1.54492,-1.308594 z m -11.07618,1.046875 c -0.72912,7.4e-5 3.7365,5.212814 9.92383,11.583984 6.18735,6.371185 8.81835,9.440192 5.84766,6.820313 -2.97069,-2.61987 -5.77836,-4.38375 -6.24023,-3.921875 -0.68033,0.680316 6.03349,8.221645 13.5957,15.541015 0.0883,-0.03466 0.27971,-0.0811 0.44726,-0.121093 l 0.22852,-0.257813 c -0.0604,0.04653 0.008,-0.0034 -0.0625,0.05078 -0.0534,0.04108 0.0966,-0.09324 0.14453,-0.140625 l -0.082,0.08984 c 1.45744,-1.123115 0.19135,-0.175897 0.19922,-0.210937 0.0394,-0.175439 0.72464,-0.529665 0.82226,-0.585938 -0.062,0.02946 0.0942,-0.05037 0.0703,-0.03906 0.001,-0.002 0.005,-0.0059 0.006,-0.0078 0.0618,-0.276035 0.007,-0.06041 0.44726,-0.603516 0.16583,-0.204293 0.25662,-0.268545 0.42383,-0.40039 -0.003,0.0012 -0.005,0.0028 -0.008,0.0039 -0.0651,0.02809 0.22217,-0.178512 0.16797,-0.132812 -0.0804,0.06778 -0.10818,0.08792 -0.16016,0.128906 0.0931,-0.04037 0.18207,-0.09055 0.27344,-0.134766 0.001,-0.0054 -0.003,-0.002 0,-0.0098 0.0615,-0.151634 0.24884,-0.211185 0.36718,-0.324219 0.0206,-0.01972 -0.0941,0.06348 -0.0742,0.04297 0.17066,-0.176258 0.27606,-0.251948 0.39648,-0.34961 0.007,-0.0487 0.0258,-0.09842 0.0644,-0.154297 0.0368,-0.157736 0.13145,-0.360067 0.3418,-0.546875 -1.13542,-1.839458 -4.45235,-5.174984 -12.11914,-12.763671 C 178.504,55.817116 171.74469,49.716707 171.01554,49.716767 Z m 3.40626,6.855469 c -0.48041,-0.08933 0.0833,1.18551 1.6914,3.810546 1.24819,2.037521 2.0236,2.594784 2.25391,1.619141 0.19313,-0.818106 -0.68546,-2.525303 -1.95313,-3.792969 -1.03898,-1.038977 -1.70394,-1.58312 -1.99218,-1.636718 z m 34.625,8.298828 c -0.004,0.0046 -0.0188,0.02213 -0.0195,0.02344 0.008,-0.0048 0.004,-0.003 0.0117,-0.0078 l 0.002,-0.002 c 0.002,-0.0045 0.004,-0.0092 0.006,-0.01367 z m -0.16211,0.238281 c -0.0437,0.02229 -0.0935,0.03939 -0.13086,0.06641 0.007,0.0066 0.0323,0.0049 0.043,0.0098 0.0301,-0.0245 0.0581,-0.05136 0.0879,-0.07617 z m 5.99023,9.033203 c -0.0236,0.055 -0.0543,0.106216 -0.0762,0.16211 0.013,0.01769 0.0246,0.03353 0.0371,0.05078 0.022,-0.05202 0.0378,-0.09252 0.0605,-0.146485 -0.005,-0.01811 -0.014,-0.04634 -0.0215,-0.06641 z m 0.041,0.207031 c -0.0138,0.0195 -0.0271,0.03915 -0.041,0.05859 0.006,0.0082 0.0118,0.01725 0.0176,0.02539 0.0107,-0.02801 0.021,-0.056 0.0234,-0.08398 z M 197.74805,76.875 c -0.004,0.0079 -0.0124,0.01339 -0.0156,0.02148 -0.004,0.0094 -0.004,0.01793 -0.008,0.02734 0.004,-4.79e-4 0.008,-0.002 0.0117,-0.002 0.003,-0.01656 0.009,-0.03178 0.0117,-0.04687 z m -0.0117,0.04687 c -0.01,0.04954 -0.0194,0.07623 -0.0332,0.140625 0.0304,-0.01524 0.0613,-0.02992 0.0918,-0.04492 0.007,-0.07588 -0.0196,-0.09504 -0.0586,-0.0957 z m -0.0332,0.140625 c -0.006,0.0029 -0.0119,0.0049 -0.0176,0.0078 -0.0137,0.067 -0.0224,0.123421 -0.0254,0.175782 0.0274,-0.114267 0.0249,-0.09956 0.043,-0.183594 z m -0.0176,0.0078 c 0.01,-0.04753 0.0209,-0.09628 0.0391,-0.146484 -0.12455,0.01471 -0.38168,0.257163 -0.54102,0.394531 0.16689,-0.08319 0.33531,-0.164329 0.50196,-0.248047 z m 30.65429,6.451172 c 0.0138,0.241014 0.0137,0.386104 0.0391,0.6875 0.0142,0.169186 -0.30281,0.163323 -0.46875,0.199219 -0.0255,0.0055 -0.0525,0.0016 -0.0781,0.0059 -0.0397,0.03566 -0.0728,0.07883 -0.11523,0.111329 -0.17514,0.134075 -0.52157,0.239497 -0.31836,0.128906 -0.0626,0.0017 -0.12491,0.0046 -0.1875,0.0059 -0.13976,0.09516 -0.19148,0.136217 -0.25,0.171875 l 0,0.365235 c 0,0.345977 -0.0447,0.64691 -0.11524,0.914062 10.38687,9.530806 25.27631,25.271017 30.49024,32.687497 7.3238,10.41765 11.03059,18.46351 13.99414,30.37305 2.31578,9.30639 4.44056,11.99048 18.41406,23.26367 4.02524,3.24738 10.21541,10.0354 16.86133,18.49414 17.0416,21.69005 37.79801,48.95735 37.79297,49.64648 -0.0109,1.4972 -29.27456,32.35609 -29.98828,31.62305 -0.42562,-0.43834 -2.24707,-3.33696 -4.04688,-6.44336 -1.79982,-3.10638 -3.67798,-6.98733 -4.17383,-8.625 -0.49584,-1.63767 -2.24476,-4.42704 -3.88672,-6.19727 -1.64196,-1.77024 -2.65151,-3.55161 -2.24414,-3.95898 0.40736,-0.40736 -0.0134,-1.49379 -0.93359,-2.41406 -0.92026,-0.92026 -1.30485,-2.49879 -0.85547,-3.50782 0.44938,-1.00902 0.16396,-2.48838 -0.63476,-3.28711 -1.46175,-1.46174 -8.84088,-17.29744 -14.56446,-31.25585 -3.55805,-8.67719 -6.80934,-12.31992 -15.41797,-17.28516 -5.72789,-3.30371 -11.53366,-8.04126 -8.03125,-6.55273 0.85287,0.36245 2.16194,0.0471 2.91016,-0.70118 1.03836,-1.03836 0.84557,-1.4084 -0.8125,-1.5625 -1.67871,-0.15602 -1.92387,-0.86481 -1.08008,-3.12109 3.42715,-9.16412 1.36047,-20.57089 -5.24805,-28.95508 -2.11349,-2.68137 -3.45872,-5.26004 -2.98828,-5.73047 0.47043,-0.47044 -0.12386,-1.2684 -1.32031,-1.77344 -5.78274,-2.44093 -8.40666,-4.30785 -7.20312,-5.125 2.08825,-1.41781 -6.97641,-10.6875 -10.45118,-10.6875 -2.0008,0 -3.56137,-0.97974 -5.00195,-3.14062 -1.15168,-1.72752 -3.11929,-4.16617 -4.37109,-5.41797 -1.72438,-1.72437 -1.77946,-2.27538 -0.22852,-2.27539 2.1436,0 6.56713,3.71869 22.32227,18.76563 l 9.49414,9.0664 -7.4707,-8.05859 c -4.13664,-4.46343 -6.89449,-8.195 -6.18165,-8.36328 0.70796,-0.16713 0.42206,-1.04828 -0.63476,-1.95703 -1.0568,-0.90874 -2.13452,-1.43807 -2.39453,-1.17579 -0.26045,0.26186 -3.72512,-3.03366 -7.70117,-7.32421 -6.63782,-7.16288 -7.36641,-7.6629 -8.91211,-6.11719 -1.5153,1.5153 -2.47211,0.92671 -9.57227,-5.89649 -1.87935,-1.80601 -3.26062,-3.189774 -4.27344,-4.275382 -0.54774,0.738587 -0.1867,0.547113 -0.8457,0.978516 -0.24663,0.161454 -0.29204,0.175509 -0.49609,0.259756 0.0181,-0.017 0.037,-0.0334 0.0547,-0.0508 -0.3219,0.24703 -0.56626,0.38694 -0.86328,0.50196 13.19636,13.25165 17.12681,19.25833 18.40821,28.10351 0.77756,5.3673 5.96651,12.83846 10.89453,15.68555 2.27663,1.31528 4.72329,1.42113 7.58008,0.32812 4.12871,-1.57967 4.29524,-1.51168 7.91015,3.20899 7.15602,9.34495 8.81572,17.1108 5.89649,27.59375 l -2.1211,7.61523 5.51367,4.3711 c 16.15316,12.80407 17.2446,13.93564 19.69532,20.4414 1.30033,3.45189 5.1936,12.19539 8.65234,19.43164 4.45313,9.31667 5.8405,13.46153 4.75195,14.19727 -2.27857,1.54007 -0.25754,6.56194 3.82422,9.5039 2.24249,1.6163 4.80187,5.07258 6.85547,9.25391 4.16036,8.47087 8.79609,15.72266 10.05078,15.72266 1.70843,0 32.58438,-31.54683 33.34961,-34.07422 0.54583,-1.80272 -0.66104,-4.13989 -4.66406,-9.03711 -2.96964,-3.63302 -11.20627,-14.31979 -18.30469,-23.75 -7.09841,-9.43021 -17.20479,-22.4133 -22.45703,-28.84961 -8.60339,-10.54293 -10.16471,-12.01042 -15.76172,-14.81641 -7.47245,-3.7462 -8.94343,-5.96379 -12.06445,-18.1914 -2.7728,-10.86335 -5.3944,-16.62808 -12.42188,-27.31446 -2.8848,-4.38679 -11.15748,-13.4171 -33.59961,-36.437491 z m 0.01,0.396485 c -0.0487,0.04446 -0.0963,0.08964 -0.14258,0.136719 0.0294,-0.01963 0.0608,-0.0364 0.0898,-0.05664 0.0263,-0.01835 0.0763,-0.101715 0.0527,-0.08008 z m -4.68164,1.15039 c -0.16322,-0.01928 -0.066,0.201886 0.25586,0.613282 -0.0179,-0.146666 -0.0285,-0.300152 -0.0293,-0.464844 -0.0432,-0.03306 -0.0849,-0.05355 -0.12891,-0.0918 -0.0104,-0.009 -0.0154,-0.01826 -0.0254,-0.02734 -0.0209,-0.0065 -0.0562,-0.0274 -0.0723,-0.0293 z m 2.62891,2.03711 c -0.22073,0.208016 -0.47642,0.32369 -0.73829,0.353515 1.85659,1.860586 2.88389,2.553175 2.27344,1.509766 -0.31702,-0.541874 -0.88564,-1.213905 -1.53515,-1.863281 z m -13.08399,6.486328 c -0.11246,0.103207 -0.23869,0.190565 -0.36328,0.279297 0.0265,0.02715 2.4e-4,0.05031 -0.0391,0.07422 2.12721,2.023404 2.78173,2.431469 1.33007,0.69336 -0.27035,-0.323707 -0.6118,-0.693103 -0.92773,-1.046875 z m -1.78711,2.060547 c -0.0418,0.07808 -0.096,0.160274 -0.14648,0.236328 0.88798,0.737267 0.87662,0.604071 0.14648,-0.236328 z m 2.16016,5.896483 c -0.30785,-0.006 0.12674,0.65829 1.20703,1.76562 1.44039,1.47642 2.32699,1.99677 1.9707,1.15625 -0.35631,-0.84053 -1.53504,-2.0477 -2.61914,-2.68359 -0.27102,-0.15897 -0.45598,-0.2364 -0.55859,-0.23828 z m 17.68359,27.07617 c 0.72887,-0.0959 2.03692,0.61895 3.60742,2.18945 3.50953,3.50952 5.07856,6.55621 3.95508,7.67969 -0.89154,0.89153 -6.37805,-4.23416 -7.69336,-7.1875 -0.74767,-1.67878 -0.59801,-2.58572 0.13086,-2.68164 z m 15.9043,1.20898 c -0.30785,-0.006 0.12478,0.65829 1.20508,1.76563 1.44039,1.47642 2.32895,1.99677 1.97265,1.15625 -0.3563,-0.84053 -1.53504,-2.04966 -2.61914,-2.68555 -0.27102,-0.15897 -0.45598,-0.23444 -0.55859,-0.23633 z m -7.41211,1.48633 c 0.0357,-0.0114 0.0842,-0.0116 0.14648,0 0.0711,0.0132 0.16097,0.0406 0.26758,0.0859 0.85288,0.36247 1.84653,1.35807 2.20899,2.21094 0.36247,0.85287 -0.33545,0.55518 -1.55079,-0.66016 -0.93049,-0.93049 -1.32235,-1.55678 -1.07226,-1.63672 z m 12.375,3.53516 c -0.25009,0.0799 0.14177,0.70622 1.07226,1.63672 1.21534,1.21534 1.91326,1.51302 1.55079,0.66015 -0.36247,-0.85287 -1.35806,-1.8465 -2.21094,-2.20898 -0.10661,-0.0453 -0.19449,-0.0747 -0.26563,-0.0879 -0.0622,-0.0116 -0.11075,-0.0114 -0.14648,0 z m -12.71484,7.49219 c 0.56071,0 1.28986,0.0469 2.04882,0.13867 2.50133,0.30246 2.50133,0.36552 0,0.66797 -2.627,0.31765 -3.82121,0.0595 -3.09375,-0.66797 0.0918,-0.0918 0.48421,-0.13867 1.04493,-0.13867 z m 23.54882,5.18164 c -0.79486,-0.0384 -1.50226,0.14874 -1.96875,0.61523 -0.68076,0.68076 1.18382,5.29525 4.83399,11.96094 l 1.87695,3.42578 -0.34961,-3.82422 c -0.41695,-4.57258 0.36018,-4.097 2.06641,1.26367 0.94171,2.95868 1.42158,3.52997 1.95508,2.33203 0.75185,-1.68817 -1.12595,-8.47732 -3.54102,-12.80273 -0.95334,-1.70743 -3.12436,-2.88628 -4.87305,-2.9707 z m 17.60157,47.03125 c -0.2307,0.0226 -0.39875,0.22875 -0.49415,0.63281 -0.21395,0.90638 0.39838,2.4355 1.36133,3.39844 0.96294,0.96295 2.47633,3.97889 3.36133,6.70117 0.88499,2.72229 3.04119,7.59034 4.79297,10.81836 1.75177,3.22802 3.77733,7.7256 4.5,9.99609 1.24752,3.91946 3.46289,7.34141 3.46289,5.34766 0,-0.51203 -2.54128,-7.44898 -5.64844,-15.41602 -4.99451,-12.80637 -9.72105,-21.63651 -11.33593,-21.47851 z m 8.57226,3.20507 c -0.81483,0.0281 -0.98234,2.2413 -0.11719,4.55469 0.68726,1.83771 1.56071,2.85922 2.03711,2.38281 0.77304,-0.77304 -0.11845,-5.44461 -1.25586,-6.58203 -0.25205,-0.25205 -0.47602,-0.36194 -0.66406,-0.35547 z m 8.88477,36.04688 c -0.37023,-0.0103 -0.18576,0.42645 0.55468,1.23047 0.89337,0.97016 1.625,1.28272 1.625,0.69531 0,-0.58741 -0.73163,-1.38093 -1.625,-1.76367 -0.24681,-0.10574 -0.43128,-0.15866 -0.55468,-0.16211 z m 2.63672,4.17188 c -0.5749,0 -0.38249,0.66242 0.42773,1.47265 0.81023,0.81022 1.07402,1.87128 0.58789,2.35742 -0.48614,0.48613 -0.48614,1.28144 0,1.76758 0.48613,0.48613 1.25559,0.51389 1.70898,0.0606 0.99526,-0.99526 -1.2499,-5.6582 -2.7246,-5.6582 z m 6.56836,15.02539 c -0.54427,0 -0.54973,0.98582 -0.01,2.18945 0.78005,1.73937 0.98374,1.73938 0.99023,0 0.005,-1.20363 -0.4362,-2.18945 -0.98046,-2.18945 z"
       style="fill:#000000"
       inkscape:connector-curvature="0" />
  </g>
</svg>
