<?xml version="1.0" encoding="UTF-8" standalone="no"?>
<!-- Created with Inkscape (http://www.inkscape.org/) -->

<svg
   xmlns:dc="http://purl.org/dc/elements/1.1/"
   xmlns:cc="http://creativecommons.org/ns#"
   xmlns:rdf="http://www.w3.org/1999/02/22-rdf-syntax-ns#"
   xmlns:svg="http://www.w3.org/2000/svg"
   xmlns="http://www.w3.org/2000/svg"
   xmlns:sodipodi="http://sodipodi.sourceforge.net/DTD/sodipodi-0.dtd"
   xmlns:inkscape="http://www.inkscape.org/namespaces/inkscape"
   id="svg3336"
   version="1.1"
   inkscape:version="0.91 r13725"
   width="455"
   height="172.5"
   viewBox="0 0 455 172.5"
   sodipodi:docname="winchester1.svg">
  <metadata
     id="metadata3342">
    <rdf:RDF>
      <cc:Work
         rdf:about="">
        <dc:format>image/svg+xml</dc:format>
        <dc:type
           rdf:resource="http://purl.org/dc/dcmitype/StillImage" />
        <dc:title></dc:title>
      </cc:Work>
    </rdf:RDF>
  </metadata>
  <defs
     id="defs3340" />
  <sodipodi:namedview
     pagecolor="#ffffff"
     bordercolor="#666666"
     borderopacity="1"
     objecttolerance="10"
     gridtolerance="10"
     guidetolerance="10"
     inkscape:pageopacity="0"
     inkscape:pageshadow="2"
     inkscape:window-width="1366"
     inkscape:window-height="706"
     id="namedview3338"
     showgrid="false"
     inkscape:zoom="2.6505495"
     inkscape:cx="227.5"
     inkscape:cy="86.25"
     inkscape:window-x="-8"
     inkscape:window-y="-8"
     inkscape:window-maximized="1"
     inkscape:current-layer="svg3336" />
  <path
     style="fill:#000000"
     d="m 10.686617,136.51995 c -1.2080396,-1.20804 -0.7338585,-45.346033 0.512172,-47.674261 0.888766,-1.660675 3.394082,-2.460521 9.6875,-3.092825 4.668791,-0.469078 18.051211,-2.20191 29.738711,-3.850741 11.6875,-1.648831 28.012311,-3.682904 36.27736,-4.520166 13.5385,-1.371467 15.68079,-1.305255 21.62261,0.668299 7.93279,2.634851 10.54153,2.106538 21.39464,-4.33279 9.64221,-5.720881 15.57208,-7.943295 28.09768,-10.530527 7.61753,-1.573447 26.59256,-2.013432 110.27917,-2.557109 55.5932,-0.361165 115.54385,-0.930506 133.22369,-1.265202 30.81967,-0.583445 32.19844,-0.508967 33.4375,1.806239 0.71079,1.328129 1.29235,3.858009 1.29235,5.621957 0,2.01749 0.69552,3.207176 1.875,3.207176 1.30251,0 1.875,1.310085 1.875,4.290765 0,6.512756 -5.14386,7.277305 -12.25978,1.822212 -3.67324,-2.815927 -19.74883,-2.654992 -21.56542,0.215894 -1.73164,2.736636 -1.39268,6.934193 0.7002,8.671129 2.8142,2.335575 2.43462,7.5 -0.55123,7.5 -1.33442,0 -2.77387,-0.5625 -3.19877,-1.25 C 402.7001,90.5625 401.0919,90 399.55123,90 395.21199,90 393.75,87.574374 393.75,80.375 l 0,-6.625 -17.249,0 -17.249,0 0.45579,4.0625 c 0.69346,6.180776 -1.69534,8.256796 -10.33279,8.979889 -72.76054,6.091221 -117.50294,7.533165 -118.92296,3.832611 -0.59334,-1.5462 -3.8668,-1.875 -18.66709,-1.875 -19.2889,0 -26.35569,1.44329 -33.61487,6.86536 -4.34507,3.245434 -13.29725,4.8589 -18.79508,3.38746 -2.53987,-0.679772 -4.34421,-2.334345 -5.59139,-5.127279 -1.80245,-4.036446 -1.96868,-4.10674 -7.86282,-3.324855 -11.66795,1.547809 -18.33231,5.86554 -23.68067,15.342314 l -3.885,6.88383 -6.99006,-0.80844 c -20.475853,-2.36816 -22.04719,-2.3389 -28.380381,0.52845 -3.360323,1.52138 -12.297179,4.9516 -19.859679,7.6227 -9.736719,3.43904 -13.647171,5.38825 -13.397695,6.67822 0.522204,2.70018 -4.458426,4.82298 -9.424953,4.01703 -2.728582,-0.44279 -6.982302,0.18998 -11.391058,1.69451 -8.931632,3.048 -17.337477,4.89785 -18.224677,4.01065 z m 9.996043,-4.47943 c 3.469212,-0.92388 7.541987,-2.34038 9.050611,-3.14777 1.508624,-0.80739 4.717053,-1.5422 7.12984,-1.6329 C 39.2759,127.16914 41.25,126.62356 41.25,126.04746 41.25,125.47136 42.314819,125 43.616264,125 c 1.301445,0 2.690041,-0.84375 3.085769,-1.875 0.395728,-1.03125 1.643701,-1.875 2.773273,-1.875 2.067214,0 18.482423,-5.97981 32.399694,-11.80271 8.651617,-3.61978 13.526832,-3.89855 23.125,-1.32229 6.38631,1.71416 13.84163,2.47118 10.3125,1.04715 -0.85937,-0.34677 -1.5625,-1.49623 -1.5625,-2.55437 0,-1.46847 0.39741,-1.59407 1.67881,-0.5306 1.29735,1.0767 1.97247,0.74876 2.97125,-1.44332 4.05665,-8.903379 13.58398,-15.506408 24.18543,-16.761993 3.39048,-0.401552 6.16451,-1.274424 6.16451,-1.939717 0,-0.665292 0.98437,-0.809607 2.1875,-0.3207 5.81502,2.363016 8.99107,2.898405 8.71784,1.46957 -0.47408,-2.47916 12.4904,-2.623849 14.94743,-0.16682 1.41478,1.414783 3.21147,1.825451 5.75809,1.316128 2.0359,-0.40718 5.15008,-0.740328 6.92039,-0.740328 2.43864,0 2.86792,-0.350828 1.77124,-1.447516 C 187.53674,84.536735 181.78037,84.03846 160,83.537684 l -13.125,-0.301772 10.9808,-0.417253 c 6.08117,-0.231075 10.67055,-0.919253 10.28549,-1.542305 -0.38243,-0.618779 0.44183,-1.039393 1.8317,-0.934698 1.38985,0.1047 2.5257,0.492528 2.5241,0.861849 -0.001,0.369322 4.77963,0.489541 10.625,0.267152 9.75857,-0.371267 10.62791,-0.209606 10.62791,1.976348 0,2.142956 1.0922,2.402415 10.9375,2.598259 8.05524,0.160234 10.4434,-0.134776 9.0625,-1.119495 -1.43384,-1.022468 -0.77209,-1.23009 2.8125,-0.882416 2.57812,0.250055 4.6875,0.03194 4.6875,-0.484707 0,-0.516643 -3.51563,-1.139061 -7.8125,-1.38315 -5.89835,-0.335061 -4.82643,-0.502807 4.375,-0.684646 10.64414,-0.21035 12.19863,-0.517864 12.27536,-2.42835 0.0751,-1.870549 0.24351,-1.825269 1.16214,0.3125 1.05756,2.461076 1.07565,2.45954 1.16214,-0.09865 0.0853,-2.5198 0.67265,-2.595664 19.35886,-2.5 10.59905,0.05426 19.6928,0.520531 20.20834,1.036156 0.51552,0.515625 -6.3283,1.04386 -15.2085,1.173855 -8.88022,0.129996 -12.91147,0.439318 -8.95834,0.68738 3.95312,0.248064 7.1875,0.985454 7.1875,1.638645 0,1.144053 -14.25789,1.806436 -26.5625,1.234024 -4.7125,-0.219232 -5.9375,0.13433 -5.9375,1.713685 0,1.490805 1.26393,1.989905 5.03923,1.989905 3.32316,0 5.28392,0.637651 5.75776,1.872453 0.61955,1.614511 4.69785,1.784204 29.60529,1.231848 15.88771,-0.352331 35.09359,-1.190124 42.67973,-1.861761 7.58614,-0.671636 17.44924,-1.229434 21.91799,-1.23955 4.5622,-0.01037 9.62092,-0.798774 11.53647,-1.798061 2.34953,-1.225678 5.55969,-1.557954 10.3125,-1.06742 l 6.90103,0.712248 0,-6.283821 0,-6.28382 9.0625,-0.577022 C 370.29687,70.637731 379.15625,70.43363 385,70.501536 l 10.625,0.123463 1.04664,7.8125 c 0.82188,6.134907 1.50635,7.8125 3.1875,7.8125 1.17747,0 2.94156,0.703125 3.9202,1.5625 0.97862,0.859375 0.7738,0.353338 -0.45519,-1.124525 -1.71784,-2.065719 -2.03377,-3.799902 -1.36634,-7.5 0.47749,-2.647136 1.38308,-5.464144 2.01242,-6.260018 0.70671,-0.893732 5.39007,-1.467215 12.24813,-1.499801 9.16804,-0.04356 11.64412,0.372163 14.20244,2.384541 1.70419,1.340518 3.99417,2.437304 5.08886,2.437304 2.8681,0 2.45452,-3.337037 -0.50966,-4.112186 -1.91994,-0.502075 -2.5,-1.70502 -2.5,-5.184548 l 0,-4.530782 -75.68149,0.249512 c -41.62481,0.137233 -75.95054,0.684855 -76.27937,1.21694 -0.32885,0.532084 -13.52219,0.630223 -29.31853,0.218086 C 232.43735,63.616954 222.5,63.789487 222.5,64.605672 c 0,0.792664 -2.16629,0.891418 -5.9375,0.270673 -10.34674,-1.703082 -42.99031,-1.256212 -54.46989,0.745658 -12.5451,2.187683 -20.85521,5.25541 -31.37207,11.581187 -8.21812,4.943109 -11.61843,5.338791 -29.47054,3.429387 -5.142511,-0.550026 -14.319399,-0.125588 -25,1.156265 -27.387416,3.286959 -61.3459,7.889877 -61.829621,8.380724 -1.050943,1.066426 -2.179136,43.579254 -1.15613,43.565594 0.610913,-0.009 3.949197,-0.77074 7.418411,-1.69464 z m 8.984006,-5.94563 c 0.847918,-0.85428 1.856551,-1.23834 2.24141,-0.85348 0.38486,0.38486 -0.30889,1.08382 -1.541666,1.55323 -1.781498,0.67835 -1.925078,0.53477 -0.699744,-0.69975 z M 41.25,121.33423 c 0,-1.40751 4.884764,-3.11613 5.927534,-2.07336 C 47.584057,119.66739 46.979166,120 45.833334,120 44.6875,120 43.75,120.5625 43.75,121.25 c 0,0.6875 -0.5625,1.25 -1.25,1.25 -0.6875,0 -1.25,-0.52459 -1.25,-1.16577 z m 7.838541,-3.33944 c 0.415365,-0.41536 1.49349,-0.45977 2.395834,-0.0987 0.997166,0.39904 0.70097,0.69523 -0.755209,0.75521 -1.317707,0.0543 -2.055989,-0.24116 -1.640625,-0.65652 z m 4.903091,-1.15309 c 0.362064,-0.36206 7.065189,-3.46994 14.895833,-6.9064 14.385276,-6.31294 24.851306,-9.20094 23.10519,-6.37567 C 91.503046,104.35183 89.988246,105 88.626431,105 c -1.361815,0 -4.562992,1.06295 -7.113729,2.36211 -2.550736,1.29916 -7.518723,3.21618 -11.039972,4.26004 -3.521249,1.04387 -8.13394,2.79342 -10.250425,3.88789 -3.653605,1.88935 -7.640463,2.74145 -6.230673,1.33166 z M 77.5,102.51718 c 0,-1.09325 3.934276,-3.76718 5.542824,-3.76718 1.90113,0 0.34841,2.26218 -2.417824,3.52256 -1.785419,0.81349 -3.125,0.91835 -3.125,0.24462 z m 48.57598,-15.059404 c 3.52813,-2.938472 2.64258,-3.15212 -2.35448,-0.568038 -2.75799,1.426215 -3.50166,1.491832 -3.03184,0.267517 0.66208,-1.725352 6.7916,-5.198889 11.55783,-6.549701 2.73666,-0.775608 6.50251,1.06212 6.50251,3.173221 0,0.962742 -4.58058,2.906289 -11.875,5.038584 l -3.75,1.096193 2.95098,-2.457776 z m 74.83773,-3.277697 c 0.84629,-0.342404 2.53379,-0.363246 3.75,-0.04631 1.21622,0.31693 0.52379,0.597079 -1.53871,0.622553 -2.0625,0.02548 -3.05757,-0.233831 -2.21129,-0.576235 z m 131.27379,-0.0079 c 0.85937,-0.346765 2.26562,-0.346765 3.125,0 0.85937,0.346766 0.15625,0.630482 -1.5625,0.630482 -1.71875,0 -2.42188,-0.283716 -1.5625,-0.630482 z M 258.09404,81.300102 C 258.53596,80.585046 260.36435,80 262.1571,80 c 3.91823,0 3.46492,0.598736 -1.32434,1.749256 -2.32335,0.558138 -3.26575,0.403584 -2.73872,-0.449154 z M 150.9375,80.422149 c 0.85937,-0.346765 2.26562,-0.346765 3.125,0 0.85937,0.346766 0.15625,0.630482 -1.5625,0.630482 -1.71875,0 -2.42188,-0.283716 -1.5625,-0.630482 z m 6.22621,0.0079 c 0.84629,-0.342404 2.53379,-0.363247 3.75,-0.04631 1.21622,0.31693 0.52379,0.597079 -1.53871,0.622553 -2.0625,0.02548 -3.05757,-0.233831 -2.21129,-0.576235 z m 52.55683,-1.34695 c 2.94005,-0.264057 7.44005,-0.260342 10,0.0083 2.55995,0.268597 0.15446,0.484644 -5.34554,0.480103 -5.5,-0.0045 -7.59451,-0.224301 -4.65446,-0.488358 z m 133.71696,0.08908 c 0.85937,-0.346765 2.26562,-0.346765 3.125,0 0.85937,0.346766 0.15625,0.630482 -1.5625,0.630482 -1.71875,0 -2.42188,-0.283716 -1.5625,-0.630482 z M 278.09404,77.550102 C 278.53596,76.835046 280.36435,76.25 282.1571,76.25 c 3.91823,0 3.46492,0.598736 -1.32434,1.749256 -2.32335,0.558138 -3.26575,0.403584 -2.73872,-0.449154 z M 343.5,76 c 1.16666,-1.166666 1.83334,-1.166666 3,0 1.16666,1.166666 0.83334,1.5 -1.5,1.5 -2.33334,0 -2.66666,-0.333334 -1.5,-1.5 z m -99.38036,-6.930164 c 5.35954,-0.23488 13.79704,-0.233447 18.75,0.0031 4.95295,0.23663 0.56786,0.428805 -9.74464,0.427054 -10.3125,-0.0018 -14.36491,-0.195359 -9.00536,-0.430238 z m 38.7189,-1.075045 c 0.41536,-0.415364 1.49349,-0.459772 2.39584,-0.09869 0.99716,0.399032 0.70097,0.695228 -0.75522,0.755208 -1.3177,0.05427 -2.05598,-0.24116 -1.64062,-0.656525 z M 204.04792,65.39115 c 1.19512,-0.312866 3.44512,-0.324218 5,-0.02522 1.55489,0.298991 0.57708,0.554972 -2.17292,0.568847 -2.75,0.01387 -4.02219,-0.230756 -2.82708,-0.543621 z M 158.75,95.778056 c 0,-0.25957 -0.98438,-1.243945 -2.1875,-2.1875 -1.98258,-1.554838 -2.02679,-1.510626 -0.47195,0.471944 1.63296,2.082185 2.65945,2.744349 2.65945,1.715556 z m 13.02276,-2.786792 C 175.20429,91.674467 173.91928,90 169.47724,90 c -4.96322,0 -8.22724,1.044894 -8.22724,2.633736 0,1.260818 7.50437,1.515791 10.52276,0.357528 z m -6.46026,-6.319115 c -0.85938,-0.346765 -2.26563,-0.346765 -3.125,0 -0.85938,0.346766 -0.15625,0.630482 1.5625,0.630482 1.71875,0 2.42187,-0.283716 1.5625,-0.630482 z"
     id="path3346"
     inkscape:connector-curvature="0" />
</svg>
